<?xml version="1.0" encoding="utf-8"?>
<!-- Generator: Adobe Illustrator 19.2.1, SVG Export Plug-In . SVG Version: 6.00 Build 0)  -->
<svg version="1.1" id="Layer_1" xmlns="http://www.w3.org/2000/svg" xmlns:xlink="http://www.w3.org/1999/xlink" x="0px" y="0px"
	 viewBox="0 0 340.2 340.2" style="enable-background:new 0 0 340.2 340.2;" xml:space="preserve">
<style type="text/css">
	.Arched_x0020_Green{fill:url(#SVGID_1_);stroke:#FFFFFF;stroke-width:0.25;stroke-miterlimit:1;}
	.st0{fill:#00591B;}
	.st1{fill:none;}
	.st2{fill:#FFFFFF;}
	.st3{fill:url(#SVGID_2_);}
	.st4{fill:url(#SVGID_3_);}
	.st5{fill:url(#SVGID_4_);}
	.st6{fill:url(#SVGID_5_);}
</style>
<linearGradient id="SVGID_1_" gradientUnits="userSpaceOnUse" x1="0" y1="340.1602" x2="0.7071" y2="339.4531">
	<stop  offset="0" style="stop-color:#259E2E"/>
	<stop  offset="0.9831" style="stop-color:#1C381D"/>
</linearGradient>
<path class="st0" d="M161.8,212.4c-12.2,0.6-24-3.2-33.1-10.8c-2.7-2.3-5.2-4.9-7.3-7.7l0-0.1l-0.3-0.4l-0.2-0.3
	c-11.4-16.5-20.9-34.9-28-54.8c-0.1-0.3-0.2-0.5-0.3-0.7c-0.1-0.4-0.3-0.8-0.4-1.2l0,0l0,0c-0.4-1.1-0.8-2.3-1.2-3.4
	c-6.5-19.4-10.4-39-11.5-58.1l0-0.1l0-0.3l0-0.3l0-0.1C78.7,54.5,92,36.6,111.8,30.6c3.8-1.1,7.7-1.8,11.6-2c0.3,0,0.5,0,0.8,0v0
	c21.3-0.9,43.4,0.9,65.6,5.2c23,4.4,44.6,11.3,64.1,20.4l0.1,0.1l0,0l0,0l0.1,0.1l0.1,0.1l0.1,0.1c3.2,1.6,6.3,3.6,9,5.8
	c7,5.8,11.9,13.4,14.2,22c1.5,5.5,1.9,11.1,1.1,16.7c-0.5,3.5-1.4,7-2.8,10.3l-0.1,0.3l-0.3,0.7l-0.4,0.7l-0.2,0.4
	c-10.3,19-23.7,36.9-39.7,53.3c-16,16.4-33.5,30.3-52.2,41.6l0.1-0.1l-0.2,0.1l-0.4,0.3l-0.5,0.2l-0.2,0.1c-2.6,1.4-5.4,2.5-8.3,3.4
	C169.6,211.5,165.8,212.2,161.8,212.4L161.8,212.4z"/>
<path class="st0" d="M92.3,255.8c-1.6,3-3.7,4.4-6.2,4.4H74.8l0.5-4.4H82c1.5,0,2.9-1.1,3.8-3.3c0.7-1.5,1.2-3.3,1.4-5.2
	c0.2-1.5,0.1-3-0.1-4.3c-0.3-1.8-1-2.8-2-2.8h-8c-2.2,0-3.8,1-4.7,2.9c-0.6,1.2-1.1,3.1-1.3,5.7l-1.7,16c-0.3,3.1-0.3,5.2,0.2,6.3
	c0.7,1.5,2.6,2.3,5.4,2.3c-1.1,0,3.5,0,14.1,0l-0.5,4.4H69.7c-4.1,0-6.7-1.3-7.9-3.9c-0.9-1.9-1-5-0.5-9.4l1.7-15.6
	c0.5-4.3,1.3-7.5,2.5-9.3c1.7-2.6,4.6-3.9,8.7-3.9h14.6c2.5,0,4.3,1.5,5.2,4.6c0.7,2.3,0.9,4.9,0.6,7.8
	C94.3,251.1,93.5,253.6,92.3,255.8z"/>
<path class="st0" d="M121.3,277.9l3-28.4c0.3-2.9,0.4-4.9,0.1-6c-0.5-2.2-1.8-3.3-4.2-3.3H109l-4,37.7h-8.1l4.5-42.2h22.5
	c4.1,0,6.7,1.1,7.9,3.3c0.9,1.7,1.1,4.7,0.7,9l-3.2,29.8H121.3z"/>
<path class="st0" d="M166.7,255.8c-1.6,3-3.7,4.4-6.2,4.4h-11.3l0.5-4.4h6.7c1.5,0,2.9-1.1,3.8-3.3c0.7-1.5,1.2-3.3,1.4-5.2
	c0.2-1.5,0.1-3-0.1-4.3c-0.3-1.8-1-2.8-2-2.8h-8c-2.2,0-3.8,1-4.7,2.9c-0.6,1.2-1.1,3.1-1.3,5.7l-1.7,16c-0.3,3.1-0.3,5.2,0.2,6.3
	c0.7,1.5,2.6,2.3,5.4,2.3c-1.1,0,3.6,0,14.1,0l-0.5,4.4H144c-4.1,0-6.7-1.3-7.9-3.9c-0.9-1.9-1-5-0.5-9.4l1.7-15.6
	c0.5-4.3,1.3-7.5,2.5-9.3c1.7-2.6,4.6-3.9,8.7-3.9h14.6c2.5,0,4.3,1.5,5.2,4.6c0.7,2.3,0.9,4.9,0.6,7.8
	C168.7,251.1,167.9,253.6,166.7,255.8z"/>
<path class="st0" d="M190,239.5c-3.3,0-5.6,0.6-6.6,2.2c-0.7,1-1.2,3.4-1.6,7.2l-3.1,29h-8.1l3.2-30.1c0.9-8.5,5.9-12.7,15.2-12.7
	h5.5l-0.5,4.4H190z"/>
<path class="st0" d="M222.6,291.9c-1.7,2.6-4.6,3.9-8.6,3.9h-11.8l0.5-4.5c1.7,0.1,3.1,0.1,4.3,0.1c3.6,0,6-0.4,7.2-1.2
	c1.6-1,2.6-3.3,3-6.9l4.5-43c-0.7,0-2,0-4,0c-1.7,0-3.1-0.1-4-0.1c-4.1,0-6.6,1.1-7.8,3.1c-0.5,1-1,3.9-1.5,8.7L203,265
	c-0.3,2.6-0.2,4.4,0.1,5.6c0.5,1.9,1.9,2.7,4.1,2.7h7.1l-0.5,4.5h-10.4c-4.1,0-6.7-1.3-7.9-3.9c-0.9-1.8-1.1-5-0.6-9.4l1.7-15.6
	c0.5-4.4,1.4-7.4,2.7-9.4c1.7-2.6,4.6-3.9,8.6-3.9h22.3l-5,46.8C224.7,286.9,223.8,290,222.6,291.9z"/>
<path class="st0" d="M244.5,296.4h-7.3l8.7-18.5l-11.7-42.3h9.2l8.2,32l14.2-32h6.4L244.5,296.4z"/>
<g>
	<path class="st0" d="M264.4,294.8c-1.2,1-2.6,1.6-4.1,1.6c-1.5,0-2.8-0.5-3.8-1.5c-1-1-1.4-2.3-1.2-3.9c0.2-1.5,0.8-2.8,2.1-3.9
		c1.2-1,2.6-1.6,4.1-1.6s2.8,0.5,3.8,1.6c1,1,1.4,2.3,1.3,3.9C266.2,292.5,265.6,293.8,264.4,294.8z M264.5,287.4
		c-0.8-1.1-1.9-1.7-3.2-1.7c-1.3,0-2.5,0.6-3.5,1.7c-1,1-1.5,2.2-1.7,3.6c-0.1,1.3,0.2,2.5,0.9,3.6c0.8,1.1,1.8,1.7,3.2,1.7
		c1.3,0,2.5-0.6,3.5-1.7c1-1,1.5-2.2,1.7-3.6C265.6,289.6,265.3,288.4,264.5,287.4z M259.2,293.9c-0.6,0-1-0.2-1.3-0.5
		c-0.2-0.3-0.3-0.6-0.3-0.9l0.3-2.7c0-0.4,0.2-0.7,0.5-1c0.4-0.3,0.8-0.5,1.4-0.5h3.5l0,0.5h-2.7c-0.4,0-0.7,0.1-0.9,0.4
		c-0.2,0.2-0.3,0.4-0.3,0.6l-0.3,2.7c0,0.2,0,0.4,0.2,0.6c0.2,0.2,0.5,0.4,0.8,0.4h2.7l0,0.5H259.2z"/>
</g>
<path class="st1" d="M157,104.7c6.1-2.9,12.4-5.6,19-8.1c3.8-1.4,7.5-2.7,11.3-3.9c-3.2-0.7-6.6-1.3-10-1.7
	c-8.7-1.1-17.1-1.2-24.8-0.4l0,0c-0.9,0.1-1.7,0.3-2.5,0.6c-3.9,1.5-6.2,5.2-5.7,9c0.5,3.3,1.2,6.6,2.1,10c0,0,0.4,1.3,1.2,3.4
	c3.8-0.8,7.6-1.6,11.2-2.3c-0.6-1.6-0.9-2.5-0.9-2.5C157.6,107.2,157.3,106,157,104.7z"/>
<path class="st2" d="M173.2,108.7c-4.5,0.6-9.3,1.4-14.4,2.4c0.2,0.6,0.4,1.2,0.7,1.9c1.7,4.5,4.5,11.6,7.8,17.6
	c6.4-3.1,13-5.9,19.9-8.6c5-1.9,10.1-3.6,15.1-5.1c3.2-1,6.4-1.9,9.6-2.7c0.3-0.1,0.6-0.1,0.9-0.2c1.3-0.3,2.5-0.6,3.8-0.9
	c0.4-0.1,0.8-0.2,1.1-0.3c8.1-1.9,16.1-3.3,23.9-4.3c0.6-1.2,1.2-2.4,1.7-3.6c0.1-0.3,0.2-0.5,0.4-0.8
	C221,104,197.4,105.4,173.2,108.7z"/>
<path class="st2" d="M120.6,134.3c7.6,17.3,17.1,32.7,27.7,45.8c1,1.2,2.2,2.3,3.5,3.3c7.2,5.2,16.9,5.3,24.1,0.8
	c14.2-10,28-22.7,40.4-37.6c5.4-6.4,10.2-13,14.5-19.7c-12.1,2.5-24.5,6-36.9,10.7c-6.4,2.4-12.6,5-18.5,7.8
	c-3.2,1.9-7.4,1.8-10.6-0.5c-0.6-0.4-1.1-0.9-1.6-1.5c-2-2.5-3.9-5.1-5.7-7.9c-3.8-6.2-7.3-14.6-9.4-20.1c-0.3-0.7-0.5-1.4-0.8-2.1
	c-10.6,2.3-21.6,5.1-32.1,7.9c0.4,1,0.7,2,1.1,3C117.8,127.6,119.2,131,120.6,134.3z"/>
<g>
	<linearGradient id="SVGID_2_" gradientUnits="userSpaceOnUse" x1="192.9663" y1="132.7626" x2="153.5262" y2="24.4018">
		<stop  offset="0.25" style="stop-color:#A4D8E3"/>
		<stop  offset="0.75" style="stop-color:#006293"/>
	</linearGradient>
	<path class="st3" d="M269.2,93.4c-0.8-4.1-2.4-8-4.8-11.5c-1.1-1.6-2.4-3.1-3.8-4.5c-1.8-1.8-3.9-3.3-6.1-4.7l-0.1-0.1l-0.1-0.1
		c-18.7-10.5-39.7-19-62.2-25.3c-21.8-6-43.6-9.5-64.9-10.3l0.1,0c-3.1-0.1-6.3,0.1-9.4,0.8c-7.9,1.7-14.6,6-19.2,11.8
		c-3.8,4.8-6.1,10.6-6.3,16.7l0,0.1l0,0.1c-0.4,18.9,1.9,38.4,6.8,58.1c0.1,0.4,0.2,0.8,0.3,1.1c22.8-6.5,52.7-14.2,73.8-17.1
		c33.3-4.5,65.6-5.5,95.7-3.6c0-0.1,0-0.2,0.1-0.2C269.9,101,269.9,97.1,269.2,93.4z"/>
	<linearGradient id="SVGID_3_" gradientUnits="userSpaceOnUse" x1="208.6346" y1="184.3692" x2="177.0157" y2="97.4971">
		<stop  offset="0.25" style="stop-color:#A5C400"/>
		<stop  offset="0.3118" style="stop-color:#9BBD06"/>
		<stop  offset="0.4126" style="stop-color:#82AB15"/>
		<stop  offset="0.5399" style="stop-color:#5A8E1D"/>
		<stop  offset="0.6872" style="stop-color:#23691E"/>
		<stop  offset="0.75" style="stop-color:#00591B"/>
	</linearGradient>
	<path class="st4" d="M173.2,108.7c-21.1,2.8-51,10.6-73.8,17.1c0.2,0.8,0.4,1.6,0.6,2.4c0.2,0.7,0.4,1.3,0.6,2
		c5.5,20.2,13.4,39.1,23.4,56.3l0.1,0.1l0.1,0.1c1.3,2.2,3,4.2,4.8,6c6.6,6.5,15.9,9.9,25.4,9.7c2.2-0.1,4.5-0.3,6.7-0.8
		c2.2-0.5,4.3-1.2,6.3-2l0.3-0.1l0.3-0.1c19.4-9.7,37.9-22.1,55-37.1c17.1-14.9,31.6-31.6,43.3-49.5l0.2-0.4l0.2-0.4
		c1.1-2.1,1.9-4.4,2.4-6.6C238.9,103.1,206.5,104.2,173.2,108.7z"/>
</g>
<g>
	<linearGradient id="SVGID_4_" gradientUnits="userSpaceOnUse" x1="187.5854" y1="124.5846" x2="159.9843" y2="48.7512">
		<stop  offset="0.45" style="stop-color:#FFFFFF"/>
		<stop  offset="1" style="stop-color:#BDE4F7"/>
	</linearGradient>
	<path class="st5" d="M146.4,110.1c-0.9-3.4-1.6-6.7-2.1-10c-0.5-3.7,1.8-7.5,5.7-9c0.8-0.3,1.7-0.5,2.5-0.6l0,0
		c7.7-0.8,16.1-0.7,24.8,0.4c3.4,0.4,6.8,1,10,1.7c-3.8,1.2-7.5,2.5-11.3,3.9c-6.6,2.5-13,5.2-19,8.1c0.3,1.3,0.6,2.6,1,3.8
		c0,0,0.3,1,0.9,2.5c5.1-1,10-1.8,14.4-2.4c24.1-3.3,47.8-4.7,70.4-4.5c0.6-1.4,1.3-2.7,1.9-4.1c2.4-7.4-0.2-15.7-7.2-20.8
		c-1.3-1-2.8-1.7-4.2-2.3c-16.3-6.3-35-11.1-54.9-13.6c-19.3-2.5-38-2.6-55.1-0.8l0,0c-1.9,0.2-3.8,0.6-5.7,1.3
		c-8.7,3.3-13.7,11.6-12.7,19.9c1.7,12.1,4.9,24.8,9.6,37.6c10.5-2.8,21.6-5.6,32.1-7.9C146.8,111.3,146.4,110.1,146.4,110.1z"/>
	<linearGradient id="SVGID_5_" gradientUnits="userSpaceOnUse" x1="205.9886" y1="185.333" x2="174.3694" y2="98.4601">
		<stop  offset="0.7" style="stop-color:#FFFFFF"/>
		<stop  offset="1" style="stop-color:#BDE4F7"/>
	</linearGradient>
	<path class="st6" d="M173.2,108.7c-4.5,0.6-9.3,1.4-14.4,2.4c0.2,0.6,0.4,1.2,0.7,1.9c1.7,4.5,4.5,11.6,7.8,17.6
		c6.4-3.1,13-5.9,19.9-8.6c5-1.9,10.1-3.6,15.1-5.1c3.2-1,6.4-1.9,9.6-2.7c0.3-0.1,0.6-0.1,0.9-0.2c1.3-0.3,2.5-0.6,3.8-0.9
		c0.4-0.1,0.8-0.2,1.1-0.3c8.1-1.9,16.1-3.3,23.9-4.3c0.6-1.2,1.2-2.4,1.7-3.6c0.1-0.3,0.2-0.5,0.4-0.8
		C221,104,197.4,105.4,173.2,108.7z M175.6,145.4c-3.2,1.9-7.4,1.8-10.6-0.5c-0.6-0.4-1.1-0.9-1.6-1.5c-2-2.5-3.9-5.1-5.7-7.9
		c-3.8-6.2-7.3-14.6-9.4-20.1c-0.3-0.7-0.5-1.4-0.8-2.1c-10.6,2.3-21.6,5.1-32.1,7.9c0.4,1,0.7,2,1.1,3c1.3,3.3,2.6,6.7,4.1,10
		c7.6,17.3,17.1,32.7,27.7,45.8c1,1.2,2.2,2.3,3.5,3.3c7.2,5.2,16.9,5.3,24.1,0.8c14.2-10,28-22.7,40.4-37.6
		c5.4-6.4,10.2-13,14.5-19.7c-12.1,2.5-24.5,6-36.9,10.7C187.7,140,181.5,142.6,175.6,145.4z"/>
</g>
<g>
	<path class="st0" d="M161.6,303.3c-0.6-0.5-0.8-1.5-0.7-3.1l2-18.1h-3.6l-1.9,17.7c-0.2,2-0.1,3.4,0.3,4.2c0.5,1.1,1.7,1.7,3.5,1.7
		h5.2l0.2-2c-0.8,0-1.4,0-1.9,0C163.1,303.8,162.1,303.6,161.6,303.3z"/>
	<path class="st0" d="M170,305.8c-1.2,0-2.1-0.6-2.7-1.9c-0.4-1-0.6-2.2-0.4-3.6c0.1-1.4,0.6-2.6,1.2-3.7c0.8-1.3,1.8-2,3.1-2h4.8
		l-0.2,2c-0.3,0-0.7,0-1.3,0c-0.5,0-0.9,0-1.1,0c-1,0-1.7,0.2-2.1,0.6c-0.5,0.5-0.8,1.4-1,2.9c-0.1,0.8-0.1,1.6,0.1,2.3
		c0.2,1,0.6,1.6,1.2,1.6h5l1.2-11.6c0.1-1,0.1-1.7-0.1-2.2c-0.3-0.6-0.9-0.9-1.8-0.9h-4.5l0.2-2h6c1.8,0,3,0.5,3.5,1.5
		c0.4,0.7,0.5,2.1,0.3,4l-1.4,13.2H170z"/>
	<path class="st0" d="M195.9,303.8c-0.8,1.3-2.1,2-3.9,2h-9.8l2.5-23.6h3.6l-2.3,21.6c0.3,0,0.9,0,1.8,0c0.7,0,1.3,0,1.8,0
		c1.6,0,2.7-0.3,3.2-1c0.3-0.5,0.6-1.6,0.8-3.3l0.7-6.5c0.1-1.2,0.1-2-0.1-2.6c-0.3-0.9-0.9-1.4-1.8-1.4h-3.1l0.2-2h4.6
		c1.8,0,3,0.6,3.5,1.9c0.4,0.9,0.4,2.4,0.2,4.4l-0.6,6.1C196.8,301.5,196.5,302.9,195.9,303.8z"/>
</g>
</svg>
